<svg width="445" height="244" viewBox="0 0 445 244" fill="none" xmlns="http://www.w3.org/2000/svg">
<mask id="mask0_32_1642" style="mask-type:alpha" maskUnits="userSpaceOnUse" x="0" y="0" width="445" height="244">
<rect width="445" height="244" fill="white"/>
</mask>
<g mask="url(#mask0_32_1642)">
<rect opacity="0.02" width="445" height="244" fill="#3C64B1"/>
<g opacity="0.06">
<path d="M0 0L445 244" stroke="#3C64B1"/>
<path d="M17.3828 -9.53125L462.383 234.469" stroke="#3C64B1"/>
<path d="M34.7656 -19.0625L479.766 224.938" stroke="#3C64B1"/>
<path d="M52.1484 -28.5938L497.148 215.406" stroke="#3C64B1"/>
<path d="M69.5312 -38.125L514.531 205.875" stroke="#3C64B1"/>
<path d="M86.9141 -47.6562L531.914 196.344" stroke="#3C64B1"/>
<path d="M104.297 -57.1875L549.297 186.812" stroke="#3C64B1"/>
<path d="M121.68 -66.7188L566.68 177.281" stroke="#3C64B1"/>
<path d="M139.062 -76.25L584.062 167.75" stroke="#3C64B1"/>
<path d="M156.445 -85.7812L601.445 158.219" stroke="#3C64B1"/>
<path d="M173.828 -95.3125L618.828 148.688" stroke="#3C64B1"/>
<path d="M191.211 -104.844L636.211 139.156" stroke="#3C64B1"/>
<path d="M208.594 -114.375L653.594 129.625" stroke="#3C64B1"/>
<path d="M-17.3828 9.53125L427.617 253.531" stroke="#3C64B1"/>
<path d="M-34.7656 19.0625L410.234 263.062" stroke="#3C64B1"/>
<path d="M-52.1484 28.5938L392.852 272.594" stroke="#3C64B1"/>
<path d="M-69.5312 38.125L375.469 282.125" stroke="#3C64B1"/>
<path d="M-86.9141 47.6562L358.086 291.656" stroke="#3C64B1"/>
<path d="M-104.297 57.1875L340.703 301.188" stroke="#3C64B1"/>
<path d="M-121.68 66.7188L323.32 310.719" stroke="#3C64B1"/>
<path d="M-139.062 76.25L305.938 320.25" stroke="#3C64B1"/>
<path d="M-156.445 85.7812L288.555 329.781" stroke="#3C64B1"/>
<path d="M-173.828 95.3125L271.172 339.312" stroke="#3C64B1"/>
<path d="M-191.211 104.844L253.789 348.844" stroke="#3C64B1"/>
<path d="M-208.594 114.375L236.406 358.375" stroke="#3C64B1"/>
<path d="M-225.977 123.906L219.023 367.906" stroke="#3C64B1"/>
</g>
<g opacity="0.06">
<path d="M8.69141 -4.76562L453.691 239.234" stroke="#3C64B1"/>
<path d="M26.0742 -14.2969L471.074 229.703" stroke="#3C64B1"/>
<path d="M43.457 -23.8281L488.457 220.172" stroke="#3C64B1"/>
<path d="M60.8398 -33.3594L505.84 210.641" stroke="#3C64B1"/>
<path d="M78.2227 -42.8906L523.223 201.109" stroke="#3C64B1"/>
<path d="M95.6055 -52.4219L540.605 191.578" stroke="#3C64B1"/>
<path d="M112.988 -61.9531L557.988 182.047" stroke="#3C64B1"/>
<path d="M130.371 -71.4844L575.371 172.516" stroke="#3C64B1"/>
<path d="M147.754 -81.0156L592.754 162.984" stroke="#3C64B1"/>
<path d="M165.137 -90.5469L610.137 153.453" stroke="#3C64B1"/>
<path d="M182.52 -100.078L627.52 143.922" stroke="#3C64B1"/>
<path d="M199.902 -109.609L644.902 134.391" stroke="#3C64B1"/>
<path d="M217.285 -119.141L662.285 124.859" stroke="#3C64B1"/>
<path d="M-8.69141 4.76562L436.309 248.766" stroke="#3C64B1"/>
<path d="M-26.0742 14.2969L418.926 258.297" stroke="#3C64B1"/>
<path d="M-43.457 23.8281L401.543 267.828" stroke="#3C64B1"/>
<path d="M-60.8398 33.3594L384.16 277.359" stroke="#3C64B1"/>
<path d="M-78.2227 42.8906L366.777 286.891" stroke="#3C64B1"/>
<path d="M-95.6055 52.4219L349.395 296.422" stroke="#3C64B1"/>
<path d="M-112.988 61.9531L332.012 305.953" stroke="#3C64B1"/>
<path d="M-130.371 71.4844L314.629 315.484" stroke="#3C64B1"/>
<path d="M-147.754 81.0156L297.246 325.016" stroke="#3C64B1"/>
<path d="M-165.137 90.5469L279.863 334.547" stroke="#3C64B1"/>
<path d="M-182.52 100.078L262.48 344.078" stroke="#3C64B1"/>
<path d="M-199.902 109.609L245.098 353.609" stroke="#3C64B1"/>
<path d="M-217.285 119.141L227.715 363.141" stroke="#3C64B1"/>
</g>
</g>
<g opacity="0.5">
<path d="M234.667 107H211.333C209.492 107 208 108.492 208 110.333V133.667C208 135.508 209.492 137 211.333 137H234.667C236.508 137 238 135.508 238 133.667V110.333C238 108.492 236.508 107 234.667 107Z" stroke="#3C64B1" stroke-width="1.5" stroke-linecap="round" stroke-linejoin="round"/>
<path d="M217.167 118.667C218.547 118.667 219.667 117.547 219.667 116.167C219.667 114.786 218.547 113.667 217.167 113.667C215.786 113.667 214.667 114.786 214.667 116.167C214.667 117.547 215.786 118.667 217.167 118.667Z" stroke="#3C64B1" stroke-width="1.5" stroke-linecap="round" stroke-linejoin="round"/>
<path d="M238 127L229.667 118.667L211.333 137" stroke="#3C64B1" stroke-width="1.5" stroke-linecap="round" stroke-linejoin="round"/>
</g>
</svg>
