<svg width="250" height="57" viewBox="0 0 250 57" fill="none" xmlns="http://www.w3.org/2000/svg">
<path d="M90.5476 20.8196L84.8159 42H77.6419L74.3017 28.2593L70.8475 42H63.7114L57.9419 20.8196H64.4326L67.4313 35.9647L70.9993 20.8196H77.8697L81.4757 35.8888L84.4364 20.8196H90.5476ZM112.989 31.0682C112.989 31.6755 112.951 32.3081 112.875 32.9661H98.1851C98.2863 34.2819 98.7038 35.2941 99.4377 36.0027C100.197 36.6859 101.12 37.0275 102.209 37.0275C103.828 37.0275 104.954 36.3443 105.587 34.9778H112.495C112.141 36.3696 111.496 37.6222 110.559 38.7356C109.648 39.8491 108.497 40.7221 107.105 41.3547C105.713 41.9873 104.157 42.3037 102.436 42.3037C100.361 42.3037 98.514 41.8608 96.8945 40.9751C95.275 40.0895 94.0097 38.8242 93.0987 37.1794C92.1878 35.5345 91.7323 33.6113 91.7323 31.4098C91.7323 29.2082 92.1751 27.285 93.0608 25.6402C93.9718 23.9954 95.237 22.7301 96.8566 21.8444C98.4761 20.9588 100.336 20.5159 102.436 20.5159C104.486 20.5159 106.308 20.9461 107.902 21.8065C109.496 22.6669 110.736 23.8942 111.622 25.4884C112.533 27.0826 112.989 28.9425 112.989 31.0682ZM106.346 29.3601C106.346 28.2466 105.966 27.361 105.207 26.703C104.448 26.0451 103.499 25.7161 102.36 25.7161C101.272 25.7161 100.349 26.0324 99.5895 26.6651C98.8557 27.2977 98.4002 28.196 98.223 29.3601H106.346ZM122.904 13.9113V42H116.413V13.9113H122.904ZM126.317 31.4098C126.317 29.2082 126.76 27.285 127.645 25.6402C128.556 23.9954 129.809 22.7301 131.403 21.8444C133.023 20.9588 134.87 20.5159 136.945 20.5159C139.602 20.5159 141.816 21.2118 143.588 22.6036C145.384 23.9954 146.561 25.9565 147.118 28.487H140.209C139.627 26.8675 138.501 26.0577 136.831 26.0577C135.642 26.0577 134.693 26.5259 133.984 27.4622C133.276 28.3732 132.921 29.689 132.921 31.4098C132.921 33.1305 133.276 34.4591 133.984 35.3954C134.693 36.3063 135.642 36.7618 136.831 36.7618C138.501 36.7618 139.627 35.9521 140.209 34.3325H147.118C146.561 36.8124 145.384 38.7609 143.588 40.178C141.791 41.5951 139.577 42.3037 136.945 42.3037C134.87 42.3037 133.023 41.8608 131.403 40.9751C129.809 40.0895 128.556 38.8242 127.645 37.1794C126.76 35.5345 126.317 33.6113 126.317 31.4098ZM160.231 42.3037C158.156 42.3037 156.283 41.8608 154.613 40.9751C152.968 40.0895 151.665 38.8242 150.703 37.1794C149.767 35.5345 149.299 33.6113 149.299 31.4098C149.299 29.2335 149.78 27.323 150.741 25.6782C151.703 24.008 153.019 22.7301 154.689 21.8444C156.359 20.9588 158.232 20.5159 160.307 20.5159C162.382 20.5159 164.254 20.9588 165.925 21.8444C167.595 22.7301 168.911 24.008 169.872 25.6782C170.834 27.323 171.315 29.2335 171.315 31.4098C171.315 33.586 170.821 35.5092 169.834 37.1794C168.873 38.8242 167.544 40.0895 165.849 40.9751C164.178 41.8608 162.306 42.3037 160.231 42.3037ZM160.231 36.6859C161.471 36.6859 162.521 36.2304 163.381 35.3194C164.267 34.4085 164.71 33.1052 164.71 31.4098C164.71 29.7143 164.28 28.4111 163.419 27.5001C162.584 26.5892 161.547 26.1337 160.307 26.1337C159.042 26.1337 157.991 26.5892 157.156 27.5001C156.321 28.3858 155.904 29.689 155.904 31.4098C155.904 33.1052 156.309 34.4085 157.118 35.3194C157.953 36.2304 158.991 36.6859 160.231 36.6859ZM201.784 20.5918C204.416 20.5918 206.503 21.3889 208.047 22.9832C209.616 24.5774 210.4 26.7916 210.4 29.6258V42H203.947V30.4988C203.947 29.1323 203.581 28.0822 202.847 27.3483C202.138 26.5892 201.151 26.2096 199.886 26.2096C198.621 26.2096 197.621 26.5892 196.887 27.3483C196.179 28.0822 195.825 29.1323 195.825 30.4988V42H189.372V30.4988C189.372 29.1323 189.005 28.0822 188.271 27.3483C187.562 26.5892 186.575 26.2096 185.31 26.2096C184.045 26.2096 183.045 26.5892 182.312 27.3483C181.603 28.0822 181.249 29.1323 181.249 30.4988V42H174.758V20.8196H181.249V23.4766C181.907 22.5909 182.767 21.8951 183.83 21.3889C184.893 20.8575 186.095 20.5918 187.436 20.5918C189.03 20.5918 190.447 20.9335 191.687 21.6167C192.952 22.2999 193.939 23.2742 194.648 24.5394C195.382 23.3754 196.381 22.4265 197.647 21.6926C198.912 20.9588 200.291 20.5918 201.784 20.5918ZM218.204 18.618C217.065 18.618 216.129 18.2891 215.395 17.6311C214.687 16.9479 214.332 16.1128 214.332 15.1259C214.332 14.1137 214.687 13.2786 215.395 12.6207C216.129 11.9375 217.065 11.5959 218.204 11.5959C219.318 11.5959 220.229 11.9375 220.937 12.6207C221.671 13.2786 222.038 14.1137 222.038 15.1259C222.038 16.1128 221.671 16.9479 220.937 17.6311C220.229 18.2891 219.318 18.618 218.204 18.618ZM221.431 20.8196V42H214.94V20.8196H221.431ZM239.04 20.5918C241.52 20.5918 243.494 21.4016 244.961 23.0211C246.454 24.6154 247.201 26.8169 247.201 29.6258V42H240.748V30.4988C240.748 29.0817 240.381 27.9809 239.647 27.1965C238.913 26.412 237.927 26.0198 236.687 26.0198C235.447 26.0198 234.46 26.412 233.726 27.1965C232.992 27.9809 232.625 29.0817 232.625 30.4988V42H226.134V20.8196H232.625V23.6285C233.283 22.6922 234.169 21.9583 235.282 21.4269C236.396 20.8702 237.648 20.5918 239.04 20.5918Z" fill="black"/>
<path d="M27.9521 10.979C27.9521 7.92859 31.6618 6.42519 33.7854 8.61493L48.5994 23.8899C49.8881 25.2187 50.6088 26.9971 50.6088 28.8482V46.1984C50.6088 49.2488 46.8991 50.7522 44.7755 48.5625L29.9616 33.2875C28.6729 31.9587 27.9521 30.1803 27.9521 28.3292V10.979Z" fill="#FFD6D6"/>
<path d="M13.9111 10.4306C13.9111 7.38025 17.6208 5.87685 19.7444 8.06659L34.2696 23.0438C35.7435 24.5636 36.5678 26.5975 36.5678 28.7146V45.6501C36.5678 48.7005 32.8581 50.2039 30.7345 48.0141L15.9206 32.7392C14.6318 31.4104 13.9111 29.632 13.9111 27.7809V10.4306Z" fill="#FF9999"/>
<path d="M0.340332 10.979C0.340332 7.92859 4.04998 6.42519 6.17362 8.61493L20.9875 23.8899C22.2763 25.2187 22.997 26.9971 22.997 28.8482V46.1984C22.997 49.2488 19.2873 50.7522 17.1637 48.5625L2.34976 33.2875C1.06104 31.9587 0.340332 30.1803 0.340332 28.3292V10.979Z" fill="#FF3A3A"/>
</svg>
