<svg width="220" height="123" viewBox="0 0 220 123" fill="none" xmlns="http://www.w3.org/2000/svg">
<mask id="mask0_46_2007" style="mask-type:alpha" maskUnits="userSpaceOnUse" x="0" y="0" width="220" height="123">
<rect width="220" height="123" fill="white"/>
</mask>
<g mask="url(#mask0_46_2007)">
<rect opacity="0.02" width="220" height="123" fill="#3C64B1"/>
<g opacity="0.06">
<path d="M0 0L220 123" stroke="#3C64B1"/>
<path d="M8.59375 -4.80469L228.594 118.195" stroke="#3C64B1"/>
<path d="M17.1875 -9.60938L237.188 113.391" stroke="#3C64B1"/>
<path d="M25.7812 -14.4141L245.781 108.586" stroke="#3C64B1"/>
<path d="M34.375 -19.2188L254.375 103.781" stroke="#3C64B1"/>
<path d="M42.9688 -24.0234L262.969 98.9766" stroke="#3C64B1"/>
<path d="M51.5625 -28.8281L271.562 94.1719" stroke="#3C64B1"/>
<path d="M60.1562 -33.6328L280.156 89.3672" stroke="#3C64B1"/>
<path d="M68.75 -38.4375L288.75 84.5625" stroke="#3C64B1"/>
<path d="M77.3438 -43.2422L297.344 79.7578" stroke="#3C64B1"/>
<path d="M85.9375 -48.0469L305.938 74.9531" stroke="#3C64B1"/>
<path d="M94.5312 -52.8516L314.531 70.1484" stroke="#3C64B1"/>
<path d="M103.125 -57.6562L323.125 65.3438" stroke="#3C64B1"/>
<path d="M-8.59375 4.80469L211.406 127.805" stroke="#3C64B1"/>
<path d="M-17.1875 9.60938L202.812 132.609" stroke="#3C64B1"/>
<path d="M-25.7812 14.4141L194.219 137.414" stroke="#3C64B1"/>
<path d="M-34.375 19.2188L185.625 142.219" stroke="#3C64B1"/>
<path d="M-42.9688 24.0234L177.031 147.023" stroke="#3C64B1"/>
<path d="M-51.5625 28.8281L168.438 151.828" stroke="#3C64B1"/>
<path d="M-60.1562 33.6328L159.844 156.633" stroke="#3C64B1"/>
<path d="M-68.75 38.4375L151.25 161.438" stroke="#3C64B1"/>
<path d="M-77.3438 43.2422L142.656 166.242" stroke="#3C64B1"/>
<path d="M-85.9375 48.0469L134.062 171.047" stroke="#3C64B1"/>
<path d="M-94.5312 52.8516L125.469 175.852" stroke="#3C64B1"/>
<path d="M-103.125 57.6562L116.875 180.656" stroke="#3C64B1"/>
<path d="M-111.719 62.4609L108.281 185.461" stroke="#3C64B1"/>
</g>
<g opacity="0.06">
<path d="M4.29688 -2.40234L224.297 120.598" stroke="#3C64B1"/>
<path d="M12.8906 -7.20703L232.891 115.793" stroke="#3C64B1"/>
<path d="M21.4844 -12.0117L241.484 110.988" stroke="#3C64B1"/>
<path d="M30.0781 -16.8164L250.078 106.184" stroke="#3C64B1"/>
<path d="M38.6719 -21.6211L258.672 101.379" stroke="#3C64B1"/>
<path d="M47.2656 -26.4258L267.266 96.5742" stroke="#3C64B1"/>
<path d="M55.8594 -31.2305L275.859 91.7695" stroke="#3C64B1"/>
<path d="M64.4531 -36.0352L284.453 86.9648" stroke="#3C64B1"/>
<path d="M73.0469 -40.8398L293.047 82.1602" stroke="#3C64B1"/>
<path d="M81.6406 -45.6445L301.641 77.3555" stroke="#3C64B1"/>
<path d="M90.2344 -50.4492L310.234 72.5508" stroke="#3C64B1"/>
<path d="M98.8281 -55.2539L318.828 67.7461" stroke="#3C64B1"/>
<path d="M107.422 -60.0586L327.422 62.9414" stroke="#3C64B1"/>
<path d="M-4.29688 2.40234L215.703 125.402" stroke="#3C64B1"/>
<path d="M-12.8906 7.20703L207.109 130.207" stroke="#3C64B1"/>
<path d="M-21.4844 12.0117L198.516 135.012" stroke="#3C64B1"/>
<path d="M-30.0781 16.8164L189.922 139.816" stroke="#3C64B1"/>
<path d="M-38.6719 21.6211L181.328 144.621" stroke="#3C64B1"/>
<path d="M-47.2656 26.4258L172.734 149.426" stroke="#3C64B1"/>
<path d="M-55.8594 31.2305L164.141 154.23" stroke="#3C64B1"/>
<path d="M-64.4531 36.0352L155.547 159.035" stroke="#3C64B1"/>
<path d="M-73.0469 40.8398L146.953 163.84" stroke="#3C64B1"/>
<path d="M-81.6406 45.6445L138.359 168.645" stroke="#3C64B1"/>
<path d="M-90.2344 50.4492L129.766 173.449" stroke="#3C64B1"/>
<path d="M-98.8281 55.2539L121.172 178.254" stroke="#3C64B1"/>
<path d="M-107.422 60.0586L112.578 183.059" stroke="#3C64B1"/>
</g>
</g>
<g opacity="0.5">
<path d="M121.667 47H98.3333C96.4924 47 95 48.4924 95 50.3333V73.6667C95 75.5076 96.4924 77 98.3333 77H121.667C123.508 77 125 75.5076 125 73.6667V50.3333C125 48.4924 123.508 47 121.667 47Z" stroke="#3C64B1" stroke-width="1.5" stroke-linecap="round" stroke-linejoin="round"/>
<path d="M104.167 58.6667C105.547 58.6667 106.667 57.5475 106.667 56.1667C106.667 54.786 105.547 53.6667 104.167 53.6667C102.786 53.6667 101.667 54.786 101.667 56.1667C101.667 57.5475 102.786 58.6667 104.167 58.6667Z" stroke="#3C64B1" stroke-width="1.5" stroke-linecap="round" stroke-linejoin="round"/>
<path d="M125 67.0001L116.667 58.6667L98.3335 77.0001" stroke="#3C64B1" stroke-width="1.5" stroke-linecap="round" stroke-linejoin="round"/>
</g>
</svg>
